<svg width="30" height="24" viewBox="0 0 30 24" fill="none" xmlns="http://www.w3.org/2000/svg">
<path fill-rule="evenodd" clip-rule="evenodd" d="M16.6255 1.04608C16.1643 1.15336 15.6982 1.52022 15.5004 1.93173C15.3941 2.15307 15.3878 2.24345 15.3731 3.78716L15.3576 5.40991H17.5672C19.461 5.40991 19.8116 5.39851 20.0198 5.33033C20.3504 5.22202 20.781 4.83454 20.9352 4.50662C21.0552 4.25129 21.0583 4.20957 21.074 2.62275L21.0901 1L18.9351 1.00505C17.7499 1.00788 16.7106 1.02631 16.6255 1.04608ZM4.6942 6.01887C4.6942 8.77977 4.69868 8.83145 4.98983 9.41495C5.17393 9.78395 5.76271 10.3552 6.1373 10.5282C6.75283 10.8125 6.72547 10.8108 10.5805 10.8108H14.1259V8.23057V5.65037L13.995 5.27538C13.758 4.5968 13.2923 4.07138 12.6655 3.77547C12.0499 3.48486 11.9652 3.47926 8.16022 3.47832L4.6942 3.47748V6.01887ZM17.3941 6.72218C16.5356 6.90175 15.8583 7.47266 15.512 8.30856L15.3889 8.60586L15.3732 11.1453L15.3576 13.6847H18.8298C21.8728 13.6847 22.3365 13.6748 22.5818 13.6048C23.5746 13.3216 24.3023 12.5149 24.432 11.5535C24.4596 11.3494 24.4828 10.1624 24.4837 8.91554L24.4853 6.64865L21.0966 6.65256C18.4884 6.65563 17.6356 6.67164 17.3941 6.72218ZM0.0165441 15.8753C0.0330366 19.7381 0.0336038 19.756 0.149361 20.1198C0.591517 21.5086 1.66209 22.5113 3.06607 22.8517C3.4603 22.9472 3.6496 22.9505 8.80157 22.9505H14.1294L14.1145 19.0236L14.0996 15.0968L13.955 14.7005C13.5716 13.6489 12.8717 12.879 11.8839 12.422C10.9758 12.0019 11.4282 12.0303 5.37503 12.0122L0 11.9961L0.0165441 15.8753ZM18.3371 15.3313C18.2644 15.5294 17.9578 16.3827 17.6557 17.2275C17.3536 18.0723 16.9944 19.0757 16.8574 19.4572C16.0197 21.7914 15.6205 22.9212 15.6205 22.958C15.6205 22.9811 16.0332 23 16.5376 23H17.4547L17.6007 22.5664C17.6809 22.328 17.7917 22.0158 17.8469 21.8727L17.9472 21.6126H19.6131H21.2789L21.4906 22.252C21.6069 22.6037 21.7022 22.9158 21.7022 22.9457C21.7022 22.9831 22.0002 23 22.6612 23C23.5538 23 23.6177 22.994 23.5844 22.9133C23.5489 22.8273 23.3657 22.3261 21.605 17.5L20.6921 14.9977L19.5807 14.9844L18.4693 14.9711L18.3371 15.3313ZM23.1968 15.7905V16.6081H24.4853H25.7738V19.8041V23H26.6242H27.4746V19.8041V16.6081H28.7373H30V15.7905V14.973H26.5984H23.1968V15.7905ZM19.7852 17.0541C19.8133 17.1494 20.0358 17.8331 20.2796 18.5732C20.5234 19.3134 20.7229 19.9321 20.7229 19.9482C20.7229 19.9643 20.2359 19.9775 19.6406 19.9775C19.0453 19.9775 18.558 19.9608 18.5577 19.9403C18.5557 19.8276 19.6649 16.8102 19.6964 16.8422C19.7171 16.8633 19.7571 16.9587 19.7852 17.0541Z" fill="#26358C"/>
</svg>
